<?xml version="1.0" encoding="iso-8859-1"?>
<!-- Generator: Adobe Illustrator 19.0.0, SVG Export Plug-In . SVG Version: 6.00 Build 0)  -->
<svg version="1.1" id="Layer_1" xmlns="http://www.w3.org/2000/svg" xmlns:xlink="http://www.w3.org/1999/xlink" x="0px" y="0px"
	 viewBox="0 0 512 512" style="enable-background:new 0 0 512 512;" xml:space="preserve">
<g>
	<g>
		<path d="M503.83,381.277c4.513,0,8.17-3.658,8.17-8.17v-32.681c0-4.512-3.657-8.17-8.17-8.17H8.17c-4.512,0-8.17,3.658-8.17,8.17
			V503.83c0,4.512,3.658,8.17,8.17,8.17h495.66c4.513,0,8.17-3.658,8.17-8.17v-32.681c0-4.512-3.657-8.17-8.17-8.17h-57.191v-16.34
			h57.191c4.513,0,8.17-3.658,8.17-8.17s-3.657-8.17-8.17-8.17h-57.191v-16.34h57.191c4.513,0,8.17-3.658,8.17-8.17
			s-3.657-8.17-8.17-8.17h-57.191v-16.34H503.83z M446.638,348.596h49.021v16.34h-49.021V348.596z M65.362,495.66H16.34V348.596
			h49.021V495.66z M98.043,495.66h-16.34V348.596h16.34V495.66z M332.255,495.66H114.383V348.596h217.872V495.66z M430.298,495.66
			h-49.021v-57.191c0-4.512-3.657-8.17-8.17-8.17s-8.17,3.658-8.17,8.17v57.191h-16.34V348.596h16.34v57.191
			c0,4.512,3.657,8.17,8.17,8.17s8.17-3.658,8.17-8.17v-57.191h49.021V495.66z M495.66,479.319v16.34h-49.021v-16.34H495.66z"/>
	</g>
</g>
<g>
	<g>
		<path d="M256,163.404c-24.027,0-43.574,19.548-43.574,43.575c0,24.027,19.547,43.574,43.574,43.574s43.574-19.548,43.574-43.574
			C299.574,182.952,280.027,163.404,256,163.404z M256,234.213c-15.017,0-27.234-12.217-27.234-27.234
			c0-15.017,12.217-27.234,27.234-27.234c15.017,0,27.234,12.217,27.234,27.234C283.234,221.996,271.017,234.213,256,234.213z"/>
	</g>
</g>
<g>
	<g>
		<path d="M451.108,78.948c-2.782-1.819-6.392-1.77-9.126,0.124c-0.193,0.134-9.928,6.885-23.085,16.028
			c-1.684-10-6.104-19.261-13.026-26.946c-10.732-11.915-26.646-18.749-43.659-18.749H327.79c-4.513,0-8.17,3.658-8.17,8.17
			s3.657,8.17,8.17,8.17h34.423c12.573,0,23.767,4.74,31.517,13.345c6.612,7.341,9.95,16.795,9.564,26.862
			c-9.446,6.573-19.365,13.486-28.184,19.652c-2.95,2.063-4.203,5.814-3.083,9.236c0.716,2.192,1.08,4.472,1.08,6.778
			c0,12.013-9.774,21.787-21.787,21.787s-21.787-9.774-21.787-21.787c0-5.819,2.266-11.29,6.381-15.406
			c2.744-2.744,3.179-7.041,1.04-10.279L262.818,3.668C261.305,1.378,258.745,0,256,0c-2.744,0-5.305,1.378-6.817,3.668
			l-30.204,45.737h-69.144c-17.015,0-32.927,6.834-43.659,18.749c-6.928,7.693-11.351,16.964-13.031,26.975
			C79.967,85.971,70.21,79.206,70.017,79.071c-2.733-1.896-6.341-1.943-9.124-0.124c-2.784,1.819-4.188,5.144-3.548,8.408
			l35.511,181.475c-8.787,3.729-14.966,12.444-14.966,22.575c0,13.516,10.995,24.511,24.511,24.511h307.2
			c13.515,0,24.511-10.995,24.511-24.511c0-10.131-6.179-18.846-14.966-22.575l35.511-181.473
			C455.294,84.092,453.891,80.767,451.108,78.948z M118.318,79.09c7.751-8.605,18.944-13.345,31.517-13.345h58.353l-33.142,50.186
			c-2.138,3.239-1.704,7.535,1.04,10.279c4.115,4.116,6.382,9.586,6.382,15.406c0,12.013-9.774,21.787-21.787,21.787
			c-12.013,0-21.787-9.774-21.787-21.787c0-2.306,0.363-4.586,1.081-6.778c1.119-3.422-0.133-7.172-3.084-9.236
			c-8.804-6.156-18.703-13.055-28.135-19.618C108.36,95.905,111.699,86.44,118.318,79.09z M402.873,266.894H167.762
			c-4.512,0-8.17,3.658-8.17,8.17s3.658,8.17,8.17,8.17h241.814c4.54,0.012,8.194,3.672,8.194,8.17c0,4.506-3.665,8.17-8.17,8.17
			H102.4c-4.506,0-8.17-3.665-8.17-8.17c0-4.506,3.665-8.17,8.17-8.17h32.681c4.512,0,8.17-3.658,8.17-8.17s-3.658-8.17-8.17-8.17
			h-25.954L77.248,103.982c12.608,8.757,30.363,21.102,45.747,31.846c-0.293,1.911-0.441,3.844-0.441,5.789
			c0,21.024,17.104,38.128,38.128,38.128c21.024,0,38.128-17.104,38.128-38.128c0-7.883-2.377-15.4-6.789-21.735L256,22.996
			l63.98,96.886c-4.413,6.334-6.789,13.852-6.789,21.735c0,21.024,17.104,38.128,38.128,38.128s38.128-17.104,38.128-38.128
			c0-1.944-0.148-3.878-0.441-5.789c15.384-10.744,33.138-23.089,45.748-31.846L402.873,266.894z"/>
	</g>
</g>
<g>
</g>
<g>
</g>
<g>
</g>
<g>
</g>
<g>
</g>
<g>
</g>
<g>
</g>
<g>
</g>
<g>
</g>
<g>
</g>
<g>
</g>
<g>
</g>
<g>
</g>
<g>
</g>
<g>
</g>
</svg>
