<?xml version="1.0" encoding="UTF-8" standalone="no"?>
<!-- Created with Inkscape (http://www.inkscape.org/) -->

<svg
   xmlns:dc="http://purl.org/dc/elements/1.1/"
   xmlns:cc="http://creativecommons.org/ns#"
   xmlns:rdf="http://www.w3.org/1999/02/22-rdf-syntax-ns#"
   xmlns:svg="http://www.w3.org/2000/svg"
   xmlns="http://www.w3.org/2000/svg"
   xmlns:sodipodi="http://sodipodi.sourceforge.net/DTD/sodipodi-0.dtd"
   xmlns:inkscape="http://www.inkscape.org/namespaces/inkscape"
   width="126.90052"
   height="127.67484"
   id="svg8548"
   version="1.1"
   inkscape:version="0.48.5 r10040"
   sodipodi:docname="skype.svg">
  <defs
     id="defs8550" />
  <sodipodi:namedview
     id="base"
     pagecolor="#ffffff"
     bordercolor="#666666"
     borderopacity="1.0"
     inkscape:pageopacity="0.0"
     inkscape:pageshadow="2"
     inkscape:zoom="0.7"
     inkscape:cx="-93.225599"
     inkscape:cy="77.641253"
     inkscape:document-units="px"
     inkscape:current-layer="layer1"
     showgrid="false"
     fit-margin-top="0"
     fit-margin-left="0"
     fit-margin-right="0"
     fit-margin-bottom="0"
     inkscape:window-width="1280"
     inkscape:window-height="752"
     inkscape:window-x="0"
     inkscape:window-y="29"
     inkscape:window-maximized="1" />
  <metadata
     id="metadata8553">
    <rdf:RDF>
      <cc:Work
         rdf:about="">
        <dc:format>image/svg+xml</dc:format>
        <dc:type
           rdf:resource="http://purl.org/dc/dcmitype/StillImage" />
        <dc:title></dc:title>
      </cc:Work>
    </rdf:RDF>
  </metadata>
  <g
     inkscape:label="Layer 1"
     inkscape:groupmode="layer"
     id="layer1"
     transform="translate(-634.10966,-453.82198)">
    <g
       id="g4994"
       transform="matrix(0.95036281,0,0,-0.95036281,929.41972,779.25586)">
      <path
         inkscape:connector-curvature="0"
         id="path4151"
         d="m -278.7065,342.4312 c -17.6883,0 -32.02752,-14.17721 -32.02752,-31.66665 0,-5.93205 1.65177,-11.48589 4.52215,-16.23204 -1.88955,-6.11255 -2.90418,-12.61072 -2.90418,-19.3457 0,-36.05748 29.16873,-65.28305 65.14918,-65.28305 6.3786,0 12.5421,0.91843 18.36797,2.63066 4.7903,-2.822 10.3848,-4.44648 16.36586,-4.44648 17.6883,0 32.02752,14.17721 32.02752,31.66665 0,5.91071 -1.64173,11.439 -4.49307,16.17381 1.87257,6.08715 2.88093,12.55516 2.88093,19.25841 0,36.05751 -29.16875,65.28888 -65.14921,65.28888 -6.32047,0 -12.43196,-0.90152 -18.2108,-2.58409 -4.82501,2.87972 -10.48196,4.5396 -16.52883,4.5396 z"
         style="fill:#ffffff;fill-opacity:1;stroke:none" />
      <path
         transform="matrix(1.651613,0,0,-1.651613,-861.67305,1168.5894)"
         d="m 406.77966,540.78387 c 0,18.13647 -14.70252,32.83899 -32.83899,32.83899 -18.13646,0 -32.83898,-14.70252 -32.83898,-32.83899 0,-18.13646 14.70252,-32.83898 32.83898,-32.83898 18.13647,0 32.83899,14.70252 32.83899,32.83898 z"
         sodipodi:ry="32.838982"
         sodipodi:rx="32.838982"
         sodipodi:cy="540.78387"
         sodipodi:cx="373.94067"
         id="path4992"
         style="fill:#48a1bc;fill-opacity:1;stroke:none"
         sodipodi:type="arc" />
      <g
         transform="matrix(1.327204,0,0,1.327204,-294.17958,-182.40677)"
         id="g4988">
        <path
           sodipodi:type="arc"
           style="fill:#ffffff;fill-opacity:1;stroke:none"
           id="path4984"
           sodipodi:cx="49.258476"
           sodipodi:cy="554.42267"
           sodipodi:rx="6.0911016"
           sodipodi:ry="16.551907"
           d="m 55.349578,554.42267 c 0,9.14136 -2.727079,16.55191 -6.091102,16.55191 -3.364022,0 -6.091101,-7.41055 -6.091101,-16.55191 0,-9.14137 2.727079,-16.55191 6.091101,-16.55191 3.364023,0 6.091102,7.41054 6.091102,16.55191 z"
           transform="matrix(1.7588869,0,0,-0.8256,-47.445175,815.46441)" />
        <path
           style="fill:#ffffff;fill-opacity:1;stroke:none"
           d="m 48.87576,580.81077 c 0,0 -6.086062,-7.30327 -12.827546,-7.39691 -6.741484,-0.0936 -14.606549,0.93632 -15.636498,13.10844 -1.029949,12.17213 54.836057,10.52433 56.928089,2.24716 2.153529,-8.52048 -3.941871,-14.76084 -11.142176,-15.3556 -7.29637,-0.60269 -10.954912,0.37453 -17.321869,7.39691 z"
           id="path4986"
           inkscape:connector-curvature="0"
           transform="matrix(0.8,0,0,-0.8,0,800)"
           sodipodi:nodetypes="cssssc" />
      </g>
    </g>
  </g>
</svg>
